HIERARCHY
ROOT SpineBase
{
  OFFSET 0.000000 0.000000 0.000000
  CHANNELS 6 Xposition Yposition Zposition Zrotation Xrotation Yrotation
  JOINT SpineMid
  {
    OFFSET 0.000000 27.052709 0.000000
    CHANNELS 3 Zrotation Xrotation Yrotation
    JOINT SpineShoulder
    {
      OFFSET -0.274090 20.311207 -0.629381
      CHANNELS 3 Zrotation Xrotation Yrotation
      JOINT Neck
      {
        OFFSET -0.142101 6.815364 -0.495859
        CHANNELS 3 Zrotation Xrotation Yrotation
        JOINT Head
        {
          OFFSET -1.047661 12.024367 0.920010
          CHANNELS 3 Zrotation Xrotation Yrotation
          End Site
          {
            OFFSET 0 0 0
          }
        }
      }
      JOINT ShoulderLeft
      {
        OFFSET -12.225931 -2.181143 4.410683
        CHANNELS 3 Zrotation Xrotation Yrotation
        JOINT ElbowLeft
        {
          OFFSET -6.357541 -18.808483 -0.569823
          CHANNELS 3 Zrotation Xrotation Yrotation
          JOINT WristLeft
          {
            OFFSET -12.505905 -16.592937 1.061994
            CHANNELS 3 Zrotation Xrotation Yrotation
            JOINT HandLeft
            {
              OFFSET -2.427337 -0.695654 -1.838715
              CHANNELS 3 Zrotation Xrotation Yrotation
              JOINT HandTipLeft
              {
                OFFSET -1.127724 -1.593022 -2.191079
                CHANNELS 3 Zrotation Xrotation Yrotation
                End Site
                {
                  OFFSET 0 0 0
                }
              }
              JOINT ThumbLeft
              {
                OFFSET 0.985451 -0.415396 -3.000002
                CHANNELS 3 Zrotation Xrotation Yrotation
                End Site
                {
                  OFFSET 0 0 0
                }
              }
            }
          }
        }
      }
      JOINT ShoulderRight
      {
        OFFSET 11.379731 -1.868019 -7.635401
        CHANNELS 3 Zrotation Xrotation Yrotation
        JOINT ElbowRight
        {
          OFFSET 0.242460 -17.535245 -6.075150
          CHANNELS 3 Zrotation Xrotation Yrotation
          JOINT WristRight
          {
            OFFSET 5.634412 -19.399092 -11.293077
            CHANNELS 3 Zrotation Xrotation Yrotation
            JOINT HandRight
            {
              OFFSET -2.287237 -3.035442 -1.395403
              CHANNELS 3 Zrotation Xrotation Yrotation
              JOINT HandTipRight
              {
                OFFSET -1.951106 -2.433260 -1.330611
                CHANNELS 3 Zrotation Xrotation Yrotation
                End Site
                {
                  OFFSET 0 0 0
                }
              }
              JOINT ThumbRight
              {
                OFFSET -1.620641 1.678660 -3.131133
                CHANNELS 3 Zrotation Xrotation Yrotation
                End Site
                {
                  OFFSET 0 0 0
                }
              }
            }
          }
        }
      }
    }
  }
  JOINT HipLeft
  {
    OFFSET -7.102860 1.266534 -1.447281
    CHANNELS 3 Zrotation Xrotation Yrotation
    JOINT KneeLeft
    {
      OFFSET -16.176541 10.601473 -23.215434
      CHANNELS 3 Zrotation Xrotation Yrotation
      JOINT AnkleLeft
      {
        OFFSET -8.391253 -35.729757 1.385433
        CHANNELS 3 Zrotation Xrotation Yrotation
        JOINT FootLeft
        {
          OFFSET -4.237366 -2.810300 -9.858887
          CHANNELS 3 Zrotation Xrotation Yrotation
          End Site
          {
            OFFSET 0 0 0
          }
        }
      }
    }
  }
  JOINT HipRight
  {
    OFFSET 6.620325 1.236665 -4.917998
    CHANNELS 3 Zrotation Xrotation Yrotation
    JOINT KneeRight
    {
      OFFSET -18.206776 11.992755 -24.596411
      CHANNELS 3 Zrotation Xrotation Yrotation
      JOINT AnkleRight
      {
        OFFSET 1.330724 -39.642390 2.658496
        CHANNELS 3 Zrotation Xrotation Yrotation
        JOINT FootRight
        {
          OFFSET -5.103951 -2.055571 -12.339168
          CHANNELS 3 Zrotation Xrotation Yrotation
          End Site
          {
            OFFSET 0 0 0
          }
        }
      }
    }
  }
}
MOTION
Frames: 15
Frame Time: 0.033333
15.390003 29.755369 380.123704 -47.362822 46.898824 -80.333875 -0.765626 -0.861264 101.376824 -1.166211 0.981937 -1.653391 18.880235 -7.999623 14.593627 0.000000 0.000000 0.000000 3.177804 33.368520 -15.085646 17.820568 3.175431 -22.685469 25.305799 -31.996594 25.575966 -8.499661 15.052538 30.115371 0.000000 0.000000 0.000000 0.000000 0.000000 0.000000 33.128988 0.393141 18.009433 164.857716 -69.575898 129.284107 63.770657 9.655662 15.911841 0.955403 -4.803768 -8.116908 0.000000 0.000000 0.000000 0.000000 0.000000 0.000000 17.408302 21.860944 156.432447 17.131302 -43.608765 -41.717845 -23.577008 -36.393690 73.940416 0.000000 0.000000 0.000000 76.957259 25.679576 29.305610 -18.674749 2.297132 41.067599 -3.168975 65.562013 -0.356331 0.000000 0.000000 0.000000
15.294924 29.743284 379.995109 -47.561915 46.978519 -79.841900 -0.572089 -0.767312 100.973063 -1.076508 0.904919 -1.631235 19.797614 -7.264520 15.140389 0.000000 0.000000 0.000000 3.257751 34.118684 -15.068202 17.337626 1.509615 -22.478507 26.719718 -30.914543 26.052204 -8.089674 25.529712 24.673559 0.000000 0.000000 0.000000 0.000000 0.000000 0.000000 33.082088 0.550926 17.952736 164.873342 -69.137142 128.791740 59.108657 12.685971 16.419232 2.227697 -5.429355 -6.285689 0.000000 0.000000 0.000000 0.000000 0.000000 0.000000 17.586768 21.891799 157.181833 16.689456 -42.895305 -43.364691 -16.137866 -40.571843 81.131017 0.000000 0.000000 0.000000 76.943580 25.406967 29.242210 -17.159666 6.682011 41.347110 -31.068527 53.349178 40.280112 0.000000 0.000000 0.000000
14.924123 29.756075 379.755818 -48.112877 46.974357 -78.113995 -0.458886 -0.576097 99.533136 -0.830795 0.899518 -1.493632 20.551831 -6.777407 15.572653 0.000000 0.000000 0.000000 2.846315 34.098656 -15.141266 17.989588 1.327635 -21.756077 27.218600 -30.811921 26.124484 -5.813156 34.562765 18.708107 0.000000 0.000000 0.000000 0.000000 0.000000 0.000000 33.032341 0.563747 17.921379 166.463302 -69.484957 131.351929 56.075702 14.067004 15.725747 2.149921 -4.730418 -4.994185 0.000000 0.000000 0.000000 0.000000 0.000000 0.000000 18.206725 22.052339 156.787673 13.281598 -41.962397 -46.544780 -9.601824 -41.521531 84.684060 0.000000 0.000000 0.000000 77.795356 24.159161 28.275441 -16.389839 7.465344 41.268642 -35.374053 44.529746 53.801877 0.000000 0.000000 0.000000
14.723278 30.098765 379.620817 -48.885310 47.264034 -77.465106 -0.182633 -0.398020 99.374273 -0.560898 0.852049 -1.360751 21.207607 -6.549189 15.928759 0.000000 0.000000 0.000000 3.115766 33.997707 -15.169992 16.841272 1.536723 -22.906483 28.879392 -30.375265 27.381851 5.052037 39.443751 8.903376 0.000000 0.000000 0.000000 0.000000 0.000000 0.000000 33.016190 0.436066 17.935682 165.744963 -69.070253 129.896724 53.853919 15.664037 16.390820 4.966887 -7.778982 -4.481084 0.000000 0.000000 0.000000 0.000000 0.000000 0.000000 18.503591 21.761929 155.690593 8.173451 -41.270672 -48.737392 -0.332068 -40.588097 83.175103 0.000000 0.000000 0.000000 78.132700 24.082326 27.708546 -16.833319 6.897545 41.519393 -34.234879 45.090361 52.720292 0.000000 0.000000 0.000000
14.730368 30.159913 379.676927 -48.870636 47.267752 -77.999125 -0.203502 -0.509143 99.862251 -0.471544 0.824328 -1.321932 22.011085 -5.924284 16.425654 0.000000 0.000000 0.000000 2.931746 33.934426 -15.197268 15.480163 1.485671 -24.033949 32.816200 -29.189153 30.015018 10.186920 44.535146 0.828004 0.000000 0.000000 0.000000 0.000000 0.000000 0.000000 33.019748 0.420986 17.940501 164.092325 -68.368148 126.819076 51.982770 17.198532 17.798171 5.289320 -8.145006 -5.127166 0.000000 0.000000 0.000000 0.000000 0.000000 0.000000 18.221859 21.366295 154.360813 3.930135 -40.854118 -49.420792 -2.914899 -35.752671 81.479706 0.000000 0.000000 0.000000 78.214318 24.544801 27.707062 -18.542902 5.411705 41.767589 -35.194513 47.986243 53.271895 0.000000 0.000000 0.000000
15.017455 29.827349 380.142225 -47.774149 46.845931 -79.465571 -0.504200 -1.013889 100.477895 -0.534721 1.007710 -1.282841 22.694271 -5.069626 16.896099 0.000000 0.000000 0.000000 3.379722 35.345896 -15.216515 15.156477 -0.042117 -24.098396 36.415023 -28.673842 32.403589 4.416781 42.825637 4.433351 0.000000 0.000000 0.000000 0.000000 0.000000 0.000000 32.977619 0.500247 17.901152 162.721103 -67.605032 124.027358 54.595536 16.533890 16.879739 4.015717 -6.964606 -4.177329 0.000000 0.000000 0.000000 0.000000 0.000000 0.000000 17.134466 20.041322 153.039800 -1.020423 -41.596787 -49.922906 0.950074 -32.171063 70.516892 0.000000 0.000000 0.000000 77.391696 25.063961 28.539210 -20.037045 3.917756 41.829260 -40.027340 53.096984 55.619434 0.000000 0.000000 0.000000
15.362928 29.450902 380.412719 -46.694393 46.619224 -80.596817 -0.625108 -1.390770 100.862573 -0.701589 1.156758 -1.311746 23.245776 -4.031827 17.337684 0.000000 0.000000 0.000000 4.262968 37.729199 -15.311583 13.553100 -3.416021 -24.877607 40.743498 -26.980634 35.036118 -4.009499 39.622291 10.633029 0.000000 0.000000 0.000000 0.000000 0.000000 0.000000 32.873747 0.600606 17.822215 161.301526 -66.952261 121.289307 54.586210 17.056050 17.752750 5.563556 -8.831072 -4.005809 0.000000 0.000000 0.000000 0.000000 0.000000 0.000000 16.268082 18.707400 154.849144 -8.663477 -41.244246 -55.062640 -1.727514 -25.225619 58.398507 0.000000 0.000000 0.000000 77.214765 25.353406 29.335326 -21.935639 2.477088 41.716642 -40.986727 59.679597 52.572566 0.000000 0.000000 0.000000
15.272886 29.156005 380.198137 -46.553451 46.635553 -80.627734 -0.493062 -1.281938 100.825765 -0.776774 1.235742 -1.317308 23.488131 -3.275960 17.592185 0.000000 0.000000 0.000000 5.046537 39.670316 -15.452148 11.802271 -6.370599 -25.945875 44.840614 -24.879415 36.934158 -15.099784 36.962909 18.299068 0.000000 0.000000 0.000000 0.000000 0.000000 0.000000 32.770784 0.660757 17.751383 160.747526 -66.577651 120.063092 54.404832 17.464825 17.691577 4.641057 -7.905541 -4.717303 0.000000 0.000000 0.000000 0.000000 0.000000 0.000000 16.182035 18.262210 154.466405 -14.201469 -40.428183 -57.701360 -2.140082 -18.915326 50.211382 0.000000 0.000000 0.000000 78.120464 25.485231 29.415536 -24.114357 1.188501 41.400275 -56.604290 64.508639 65.787080 0.000000 0.000000 0.000000
15.870014 29.232210 380.115907 -46.005030 47.280960 -80.588831 -0.053417 -1.449097 100.581296 -1.081379 1.231098 -1.487197 24.321768 -2.484447 18.119504 0.000000 0.000000 0.000000 5.564264 40.924945 -15.587991 10.193441 -8.620661 -27.047530 47.533063 -23.005949 37.839374 -11.773916 31.363290 17.966448 0.000000 0.000000 0.000000 0.000000 0.000000 0.000000 32.757017 0.594093 17.756226 160.734269 -66.172164 119.518524 54.603322 17.734108 16.897664 3.614858 -6.516701 -2.837072 0.000000 0.000000 0.000000 0.000000 0.000000 0.000000 16.875059 17.710581 153.778681 -17.491414 -39.634139 -59.032788 -5.106238 -13.154409 52.068906 0.000000 0.000000 0.000000 79.380142 25.114182 29.737811 -25.916527 0.148757 41.190294 -58.993602 66.429222 68.123531 0.000000 0.000000 0.000000
16.541460 28.911342 380.316653 -44.516643 47.363385 -80.213212 -0.226565 -1.856757 99.408666 -1.119746 1.343771 -1.438829 23.595568 -2.563342 17.788601 0.000000 0.000000 0.000000 5.546238 41.921747 -16.171223 9.227142 -10.391355 -27.690402 48.475414 -21.662803 37.532828 -9.978887 26.310243 19.230568 0.000000 0.000000 0.000000 0.000000 0.000000 0.000000 32.210873 0.349203 17.484011 160.905957 -66.106230 119.664814 55.237522 17.520251 14.416122 1.900646 -4.424977 -0.071540 0.000000 0.000000 0.000000 0.000000 0.000000 0.000000 16.759790 15.240777 151.355859 -17.883986 -40.600010 -58.507763 -0.032339 -14.371143 40.719140 0.000000 0.000000 0.000000 80.552684 23.684622 30.224800 -28.375156 -0.434725 41.099385 -66.727115 55.038791 85.743393 0.000000 0.000000 0.000000
16.918321 28.600081 380.486804 -43.634981 47.216811 -79.751165 -0.466863 -1.808411 98.566954 -1.249033 1.312351 -1.501145 22.912540 -2.468381 17.458149 0.000000 0.000000 0.000000 5.841441 43.297890 -16.620311 8.380487 -12.491815 -28.176535 48.918068 -20.512346 36.786019 -6.316450 29.772994 14.801716 0.000000 0.000000 0.000000 0.000000 0.000000 0.000000 31.753796 0.372282 17.214418 160.622601 -65.666489 118.705520 56.306666 17.308053 12.132011 -0.442252 -1.993071 3.137695 0.000000 0.000000 0.000000 0.000000 0.000000 0.000000 16.597295 13.959213 149.626717 -13.485854 -42.124240 -55.630016 0.690088 -18.543215 36.809390 0.000000 0.000000 0.000000 81.576439 22.865836 30.670437 -29.814951 -0.042643 40.729397 -63.266464 53.507494 84.519917 0.000000 0.000000 0.000000
16.992385 28.361377 380.593790 -43.466788 46.944919 -78.884610 -0.679481 -1.360302 97.777515 -1.397317 1.209592 -1.605517 22.462020 -2.195069 17.241674 0.000000 0.000000 0.000000 5.756673 44.611839 -16.935044 8.604452 -13.095763 -28.179799 49.833938 -20.320791 37.214626 3.449032 31.592307 6.362446 0.000000 0.000000 0.000000 0.000000 0.000000 0.000000 31.420586 0.551809 16.989365 159.329825 -64.464484 115.349904 58.055705 17.137363 9.022630 -2.833634 0.310189 8.182106 0.000000 0.000000 0.000000 0.000000 0.000000 0.000000 16.627102 13.799686 148.207657 -13.162572 -42.024389 -55.034773 0.788870 -18.285902 34.316904 0.000000 0.000000 0.000000 82.080243 21.772931 30.140978 -29.415403 1.244028 41.093731 -51.449349 49.312123 77.414878 0.000000 0.000000 0.000000
16.617065 28.456378 380.467806 -44.428875 46.837504 -77.191781 -0.694123 -0.592791 96.850840 -1.367041 0.907269 -1.696142 22.012293 -2.078947 17.010399 0.000000 0.000000 0.000000 4.540130 44.036255 -16.825787 9.262820 -12.613154 -27.350689 45.488964 -19.666228 32.582440 14.228446 29.928789 1.852504 0.000000 0.000000 0.000000 0.000000 0.000000 0.000000 31.291743 0.808664 16.869240 159.947021 -64.852282 116.706402 59.085214 16.176037 7.004355 -4.101424 1.265831 9.443035 0.000000 0.000000 0.000000 0.000000 0.000000 0.000000 17.175641 14.609194 146.297802 -12.528865 -41.684419 -53.994575 -0.189943 -17.426428 35.862633 0.000000 0.000000 0.000000 82.704658 20.610855 28.779867 -29.560761 1.383521 41.641692 -39.704717 50.212776 65.829308 0.000000 0.000000 0.000000
16.336735 28.794310 380.416384 -45.471879 46.844172 -77.017937 -0.717995 -0.021680 97.468365 -1.346660 0.446186 -1.861867 21.939324 -1.842685 16.979976 0.000000 0.000000 0.000000 3.876674 42.445041 -16.455361 8.975943 -12.649151 -26.800720 41.171019 -17.815910 27.062177 21.403499 27.485962 0.901815 0.000000 0.000000 0.000000 0.000000 0.000000 0.000000 31.354476 1.100350 16.853455 159.132348 -64.678500 115.372611 59.111960 16.278546 7.721923 -1.102012 -0.879497 9.844636 0.000000 0.000000 0.000000 0.000000 0.000000 0.000000 17.368844 15.564837 144.521207 -10.614452 -41.947532 -51.172290 -2.563215 -15.775000 41.222095 0.000000 0.000000 0.000000 82.493201 20.852382 27.637170 -28.917645 1.095500 42.311214 -24.048237 51.448829 47.813297 0.000000 0.000000 0.000000
15.748588 28.829274 380.718682 -46.426087 45.974339 -77.106886 -1.286080 0.525439 98.070433 -1.285560 0.219647 -1.925326 22.079166 -1.412929 17.077675 0.000000 0.000000 0.000000 2.675799 40.554467 -15.960049 8.216620 -12.310880 -26.698827 39.086272 -14.450866 21.975393 19.542299 29.284115 3.260641 0.000000 0.000000 0.000000 0.000000 0.000000 0.000000 31.570982 1.513589 16.903610 158.534597 -64.512169 114.344093 57.684199 17.309637 10.232651 1.995090 -3.575403 7.665603 0.000000 0.000000 0.000000 0.000000 0.000000 0.000000 16.570170 16.703397 145.246957 -10.810203 -41.795581 -51.426537 -6.562157 -13.641555 49.815931 0.000000 0.000000 0.000000 82.111863 21.266391 26.111467 -28.754564 1.126825 43.167006 -15.752394 48.296086 41.041769 0.000000 0.000000 0.000000
